<svg width="117" height="20" viewBox="0 0 117 20" fill="none" xmlns="http://www.w3.org/2000/svg">
<path d="M15.3132 15.6632C14.8089 16.1674 13.7618 16.3903 12.1406 15.871C10.575 15.3695 8.74794 14.2425 7.07772 12.5723C5.4075 10.902 4.28047 9.07497 3.77898 7.50935C3.25971 5.88821 3.48254 4.84108 3.98681 4.33681C4.49108 3.83254 5.53821 3.60972 7.15934 4.12899C8.72497 4.63048 10.552 5.7575 12.2223 7.42772C13.8925 9.09794 15.0195 10.925 15.521 12.4906C16.0403 14.1118 15.8174 15.1589 15.3132 15.6632Z" stroke="#9800D9" stroke-width="2"/>
<path d="M4.14874 15.6632C4.65301 16.1674 5.70014 16.3903 7.32127 15.871C8.8869 15.3695 10.714 14.2425 12.3842 12.5723C14.0544 10.902 15.1814 9.07497 15.6829 7.50935C16.2022 5.88821 15.9794 4.84108 15.4751 4.33681C14.9708 3.83254 13.9237 3.60972 12.3026 4.12899C10.7369 4.63048 8.90987 5.7575 7.23965 7.42772C5.56943 9.09794 4.4424 10.925 3.94091 12.4906C3.42164 14.1118 3.64447 15.1589 4.14874 15.6632Z" stroke="#9800D9" stroke-width="2"/>
<path d="M23.2242 15.5952C23.1161 15.5952 23.0242 15.5573 22.9485 15.4817C22.8728 15.406 22.835 15.3141 22.835 15.206V4.64808C22.835 4.52915 22.8728 4.43184 22.9485 4.35616C23.0242 4.28047 23.1161 4.24263 23.2242 4.24263H30.3601C30.479 4.24263 30.5763 4.28047 30.652 4.35616C30.7277 4.43184 30.7655 4.52915 30.7655 4.64808V5.71846C30.7655 5.82658 30.7277 5.91849 30.652 5.99417C30.5763 6.06985 30.479 6.10769 30.3601 6.10769H25.0244V8.97827H30.0033C30.1222 8.97827 30.2195 9.01611 30.2952 9.09179C30.3709 9.15667 30.4087 9.24857 30.4087 9.3675V10.373C30.4087 10.4919 30.3709 10.5892 30.2952 10.6649C30.2195 10.7298 30.1222 10.7622 30.0033 10.7622H25.0244V13.7301H30.4898C30.6088 13.7301 30.7061 13.768 30.7817 13.8436C30.8574 13.9193 30.8953 14.0166 30.8953 14.1356V15.206C30.8953 15.3141 30.8574 15.406 30.7817 15.4817C30.7061 15.5573 30.6088 15.5952 30.4898 15.5952H23.2242Z" fill="black"/>
<path d="M32.2263 15.5952C32.1398 15.5952 32.0587 15.5627 31.983 15.4979C31.9181 15.433 31.8857 15.3519 31.8857 15.2546C31.8857 15.2114 31.8965 15.1627 31.9181 15.1086L35.8267 4.64808C35.8591 4.53996 35.9186 4.44806 36.0051 4.37238C36.1024 4.28588 36.2321 4.24263 36.3943 4.24263H38.162C38.3242 4.24263 38.4486 4.28588 38.5351 4.37238C38.6216 4.44806 38.6864 4.53996 38.7297 4.64808L42.6382 15.1086C42.649 15.1627 42.6544 15.2114 42.6544 15.2546C42.6544 15.3519 42.622 15.433 42.5571 15.4979C42.4922 15.5627 42.4165 15.5952 42.3301 15.5952H40.9191C40.7677 15.5952 40.6542 15.5627 40.5785 15.4979C40.5136 15.4222 40.4704 15.3519 40.4488 15.287L39.6865 13.3085H34.8698L34.1076 15.287C34.0859 15.3519 34.0373 15.4222 33.9616 15.4979C33.8967 15.5627 33.7886 15.5952 33.6372 15.5952H32.2263ZM35.4374 11.4434H39.1189L37.2701 6.43205L35.4374 11.4434Z" fill="black"/>
<path d="M47.9511 15.7574C46.9456 15.7574 46.1022 15.6114 45.4211 15.3195C44.7507 15.0167 44.2372 14.6275 43.8804 14.1518C43.5344 13.6652 43.3506 13.1571 43.329 12.6273C43.329 12.53 43.3614 12.4489 43.4263 12.384C43.4912 12.3192 43.5722 12.2867 43.6695 12.2867H45.1129C45.2535 12.2867 45.3562 12.3192 45.4211 12.384C45.4968 12.4381 45.5616 12.5084 45.6157 12.5949C45.6806 12.8003 45.8049 13.0057 45.9887 13.2111C46.1725 13.4058 46.4212 13.5679 46.7347 13.6977C47.0591 13.8274 47.4645 13.8923 47.9511 13.8923C48.7295 13.8923 49.308 13.7626 49.6864 13.5031C50.0756 13.2436 50.2702 12.8922 50.2702 12.4489C50.2702 12.1354 50.1675 11.8867 49.9621 11.7029C49.7567 11.5083 49.4377 11.3353 49.0052 11.1839C48.5836 11.0217 48.0214 10.8541 47.3186 10.6812C46.5077 10.4865 45.8265 10.2541 45.2751 9.98378C44.7345 9.70267 44.3237 9.35128 44.0426 8.92961C43.7723 8.50795 43.6371 7.97276 43.6371 7.32404C43.6371 6.69695 43.8047 6.14013 44.1399 5.65359C44.4859 5.16705 44.9724 4.78323 45.5995 4.50212C46.2374 4.22101 46.9942 4.08045 47.87 4.08045C48.5728 4.08045 49.1945 4.17776 49.7351 4.37238C50.2757 4.55618 50.7243 4.80485 51.0811 5.1184C51.4379 5.42114 51.7082 5.7509 51.892 6.10769C52.0867 6.45368 52.1894 6.79425 52.2002 7.12942C52.2002 7.21592 52.1677 7.29701 52.1029 7.37269C52.0488 7.43756 51.9677 7.47 51.8596 7.47H50.3513C50.2648 7.47 50.1783 7.44838 50.0918 7.40513C50.0054 7.36188 49.9351 7.28079 49.881 7.16186C49.8161 6.82669 49.6053 6.54017 49.2485 6.30231C48.8917 6.06445 48.4322 5.94552 47.87 5.94552C47.2861 5.94552 46.8158 6.05364 46.459 6.26987C46.1022 6.48611 45.9238 6.82128 45.9238 7.27539C45.9238 7.57812 46.0103 7.8322 46.1833 8.03763C46.3671 8.23224 46.6536 8.40523 47.0429 8.5566C47.4429 8.70797 47.9673 8.87015 48.616 9.04314C49.535 9.24857 50.2865 9.48643 50.8703 9.75673C51.4542 10.027 51.8812 10.373 52.1515 10.7947C52.4218 11.2055 52.557 11.7299 52.557 12.3678C52.557 13.0814 52.3624 13.6923 51.9731 14.2004C51.5947 14.6978 51.0595 15.0816 50.3676 15.3519C49.6756 15.6222 48.8701 15.7574 47.9511 15.7574Z" fill="black"/>
<path d="M57.3454 15.5952C57.2373 15.5952 57.1454 15.5573 57.0697 15.4817C56.9941 15.406 56.9562 15.3141 56.9562 15.206V11.5407L53.1288 4.76161C53.118 4.73998 53.1072 4.71295 53.0963 4.68052C53.0855 4.64808 53.0801 4.61565 53.0801 4.58321C53.0801 4.4859 53.1126 4.40481 53.1774 4.33994C53.2423 4.27507 53.318 4.24263 53.4045 4.24263H54.8479C54.9776 4.24263 55.0803 4.27507 55.156 4.33994C55.2425 4.40481 55.302 4.47509 55.3344 4.55077L58.0915 9.27019L60.8323 4.55077C60.8755 4.47509 60.935 4.40481 61.0107 4.33994C61.0972 4.27507 61.2053 4.24263 61.3351 4.24263H62.7622C62.8595 4.24263 62.9406 4.27507 63.0055 4.33994C63.0704 4.40481 63.1028 4.4859 63.1028 4.58321C63.1028 4.61565 63.0974 4.64808 63.0866 4.68052C63.0866 4.71295 63.0758 4.73998 63.0542 4.76161L59.2267 11.5407V15.206C59.2267 15.3141 59.1889 15.406 59.1132 15.4817C59.0375 15.5573 58.9402 15.5952 58.8213 15.5952H57.3454Z" fill="black"/>
<path d="M67.6286 15.5952C67.5205 15.5952 67.4286 15.5573 67.3529 15.4817C67.2772 15.406 67.2394 15.3141 67.2394 15.206V6.23744H64.2391C64.131 6.23744 64.0391 6.1996 63.9634 6.12391C63.8877 6.04823 63.8498 5.95633 63.8498 5.84821V4.64808C63.8498 4.52915 63.8877 4.43184 63.9634 4.35616C64.0391 4.28047 64.131 4.24263 64.2391 4.24263H72.5102C72.6292 4.24263 72.7265 4.28047 72.8021 4.35616C72.8778 4.43184 72.9157 4.52915 72.9157 4.64808V5.84821C72.9157 5.95633 72.8778 6.04823 72.8021 6.12391C72.7265 6.1996 72.6292 6.23744 72.5102 6.23744H69.5261V15.206C69.5261 15.3141 69.4883 15.406 69.4126 15.4817C69.3369 15.5573 69.2396 15.5952 69.1207 15.5952H67.6286Z" fill="black"/>
<path d="M74.9505 15.5952C74.8424 15.5952 74.7505 15.5573 74.6748 15.4817C74.5991 15.406 74.5613 15.3141 74.5613 15.206V4.64808C74.5613 4.52915 74.5991 4.43184 74.6748 4.35616C74.7505 4.28047 74.8424 4.24263 74.9505 4.24263H79.151C80.4592 4.24263 81.4917 4.54537 82.2486 5.15084C83.0054 5.75631 83.3838 6.63748 83.3838 7.79436C83.3838 8.59444 83.1838 9.25938 82.7838 9.78917C82.3945 10.319 81.8702 10.7028 81.2106 10.9406L83.5784 15.0762C83.6109 15.1411 83.6271 15.2005 83.6271 15.2546C83.6271 15.3519 83.5893 15.433 83.5136 15.4979C83.4487 15.5627 83.373 15.5952 83.2865 15.5952H81.8107C81.6269 15.5952 81.4863 15.5465 81.389 15.4492C81.2917 15.3519 81.216 15.2546 81.162 15.1573L79.0699 11.3136H76.8156V15.206C76.8156 15.3141 76.7777 15.406 76.702 15.4817C76.6372 15.5573 76.5453 15.5952 76.4263 15.5952H74.9505ZM76.8156 9.48102H79.1023C79.7618 9.48102 80.2538 9.33506 80.5781 9.04314C80.9025 8.74041 81.0647 8.31874 81.0647 7.77814C81.0647 7.23754 80.9025 6.81588 80.5781 6.51314C80.2646 6.1996 79.7726 6.04282 79.1023 6.04282H76.8156V9.48102Z" fill="black"/>
<path d="M84.7762 15.5952C84.6897 15.5952 84.6086 15.5627 84.5329 15.4979C84.468 15.433 84.4356 15.3519 84.4356 15.2546C84.4356 15.2114 84.4464 15.1627 84.468 15.1086L88.3765 4.64808C88.409 4.53996 88.4684 4.44806 88.5549 4.37238C88.6523 4.28588 88.782 4.24263 88.9442 4.24263H90.7119C90.8741 4.24263 90.9984 4.28588 91.0849 4.37238C91.1714 4.44806 91.2363 4.53996 91.2796 4.64808L95.1881 15.1086C95.1989 15.1627 95.2043 15.2114 95.2043 15.2546C95.2043 15.3519 95.1719 15.433 95.107 15.4979C95.0421 15.5627 94.9664 15.5952 94.8799 15.5952H93.469C93.3176 15.5952 93.2041 15.5627 93.1284 15.4979C93.0635 15.4222 93.0203 15.3519 92.9987 15.287L92.2364 13.3085H87.4197L86.6574 15.287C86.6358 15.3519 86.5872 15.4222 86.5115 15.4979C86.4466 15.5627 86.3385 15.5952 86.1871 15.5952H84.7762ZM87.9873 11.4434H91.6688L89.8199 6.43205L87.9873 11.4434Z" fill="black"/>
<path d="M97.1076 15.5952C96.9995 15.5952 96.9076 15.5573 96.8319 15.4817C96.7562 15.406 96.7184 15.3141 96.7184 15.206V4.64808C96.7184 4.52915 96.7562 4.43184 96.8319 4.35616C96.9076 4.28047 96.9995 4.24263 97.1076 4.24263H101.065C102.157 4.24263 103.054 4.41022 103.757 4.74539C104.471 5.08056 105.006 5.57791 105.363 6.23744C105.73 6.89697 105.919 7.70246 105.93 8.65391C105.952 9.12964 105.963 9.5513 105.963 9.91891C105.963 10.2865 105.952 10.7028 105.93 11.1677C105.909 12.1732 105.725 13.0057 105.379 13.6652C105.033 14.314 104.508 14.8005 103.806 15.1249C103.114 15.4384 102.227 15.5952 101.146 15.5952H97.1076ZM98.9727 13.7301H101.065C101.67 13.7301 102.162 13.6436 102.541 13.4706C102.919 13.2976 103.195 13.0219 103.368 12.6435C103.552 12.2543 103.649 11.7461 103.66 11.119C103.67 10.7947 103.676 10.5136 103.676 10.2757C103.687 10.027 103.687 9.78376 103.676 9.5459C103.676 9.29722 103.67 9.01611 103.66 8.70256C103.638 7.81598 103.416 7.16186 102.995 6.74019C102.573 6.31853 101.903 6.10769 100.984 6.10769H98.9727V13.7301Z" fill="black"/>
<path d="M108.511 15.5952C108.403 15.5952 108.311 15.5573 108.235 15.4817C108.159 15.406 108.122 15.3141 108.122 15.206V4.64808C108.122 4.52915 108.159 4.43184 108.235 4.35616C108.311 4.28047 108.403 4.24263 108.511 4.24263H115.647C115.766 4.24263 115.863 4.28047 115.939 4.35616C116.014 4.43184 116.052 4.52915 116.052 4.64808V5.71846C116.052 5.82658 116.014 5.91849 115.939 5.99417C115.863 6.06985 115.766 6.10769 115.647 6.10769H110.311V8.97827H115.29C115.409 8.97827 115.506 9.01611 115.582 9.09179C115.658 9.15667 115.695 9.24857 115.695 9.3675V10.373C115.695 10.4919 115.658 10.5892 115.582 10.6649C115.506 10.7298 115.409 10.7622 115.29 10.7622H110.311V13.7301H115.776C115.895 13.7301 115.993 13.768 116.068 13.8436C116.144 13.9193 116.182 14.0166 116.182 14.1356V15.206C116.182 15.3141 116.144 15.406 116.068 15.4817C115.993 15.5573 115.895 15.5952 115.776 15.5952H108.511Z" fill="black"/>
</svg>
